<?xml version="1.0" standalone="no"?>
<!DOCTYPE svg PUBLIC "-//W3C//DTD SVG 20010904//EN"
 "http://www.w3.org/TR/2001/REC-SVG-20010904/DTD/svg10.dtd">
<svg version="1.0" xmlns="http://www.w3.org/2000/svg"
 width="512.000000pt" height="512.000000pt" viewBox="0 0 512.000000 512.000000"
 preserveAspectRatio="xMidYMid meet">
<metadata>
Created by potrace 1.11, written by Peter Selinger 2001-2013
</metadata>
<g transform="translate(0.000000,512.000000) scale(0.100000,-0.100000)"
fill="#000000" stroke="none">
<path d="M861 5102 c-12 -9 -25 -30 -29 -47 -4 -16 -7 -858 -7 -1870 1 -1672
3 -1843 17 -1870 28 -51 608 -622 650 -640 33 -13 154 -15 1007 -15 l969 0 -1
-306 -2 -306 28 -24 c27 -23 34 -24 183 -24 151 0 156 1 179 25 29 28 27 1 26
362 l0 273 172 0 c151 0 176 2 203 19 21 13 33 29 35 48 2 15 4 996 4 2178 -1
1708 -4 2155 -14 2173 -7 13 -24 27 -37 33 -16 6 -654 9 -1694 9 -1570 0
-1669 -1 -1689 -18z"/>
</g>
</svg>
